<svg width="20" height="14" viewBox="0 0 20 14" fill="none" xmlns="http://www.w3.org/2000/svg">
<path d="M10.5243 1.41419L19.8239 9.89622C20.0391 10.0924 20.1651 10.3617 20.1786 10.6544C20.192 10.9471 20.0913 11.2268 19.8949 11.4419L19.2705 12.1267C18.8635 12.5724 18.1703 12.6043 17.7248 12.1978L9.91561 5.07525L2.78514 12.8931C2.5888 13.1082 2.31968 13.2343 2.02715 13.2478C1.73429 13.2613 1.45472 13.1603 1.23931 12.9642L0.554775 12.3395C0.339515 12.1432 0.213525 11.8741 0.200066 11.5814C0.186607 11.2887 0.287359 11.0089 0.483701 10.7938L8.97331 1.48551C9.17028 1.26989 9.44071 1.14401 9.73376 1.13118C10.0279 1.11701 10.3086 1.21755 10.5243 1.41419Z" fill="white"/>
</svg>
